<svg xmlns="http://www.w3.org/2000/svg" viewBox="0 0 238.68 92.36"><title>Ресурс 3</title><polygon points="91.44 37.65 91.44 12.63 69.78 0.13 48.12 12.63 48.12 37.65 69.78 50.15 91.44 37.65" style="fill:#e7af18"/><polygon points="43.32 37.52 43.32 12.51 21.66 0 0 12.51 0 37.52 21.66 50.02 43.32 37.52" style="fill:#e7af18"/><polygon points="66.84 79.05 66.84 54.04 45.18 41.53 23.52 54.04 23.52 79.05 45.18 91.55 66.84 79.05" style="fill:#e7af18"/><polygon points="113.77 78.72 113.77 53.71 92.11 41.2 70.45 53.71 70.45 78.72 92.11 91.22 113.77 78.72" style="fill:#3e3e3d"/><path d="M18.13,9.19h7.33L37.15,36.84H29l-2-4.9H16.4l-2,4.9h-8ZM24.8,26l-3.06-7.81L18.64,26Z" style="fill:#fff"/><path d="M60.08,11.49H71.85c6.94,0,11.41,3.57,11.41,9.72,0,6.48-5,9.89-11.8,9.89H67.69v7.84H60.08ZM71.3,25.14c2.71,0,4.35-1.42,4.35-3.65S74,17.88,71.26,17.88H67.69v7.26Z" style="fill:#fff"/><path d="M41.36,52.23H49V79.69H41.36Z" style="fill:#fff"/><path d="M79.52,76.78l4.06-4.86c2.8,2.31,5.75,3.78,9.31,3.78,2.81,0,4.51-1.11,4.51-3,0-1.74-1.07-2.63-6.29-4-6.29-1.61-10.34-3.35-10.34-9.64,0-5.66,4.54-9.4,10.92-9.4a18,18,0,0,1,11.59,4l-3.56,5.17c-2.77-1.92-5.49-3.08-8.12-3.08s-4,1.2-4,2.81c0,2.05,1.34,2.72,6.73,4.1,6.33,1.65,9.9,3.93,9.9,9.45,0,6.2-4.73,9.68-11.46,9.68A19.85,19.85,0,0,1,79.52,76.78Z" style="fill:#fff"/><path d="M177.93,85.51h1.47v1.68h-1.47Z" style="fill:#3e3e3d"/><path d="M181.16,83.07a4.31,4.31,0,0,1,7.55-2.85l-.79.83a3.38,3.38,0,0,0-2.54-1.21,3.05,3.05,0,0,0-2.95,3.23,3.08,3.08,0,0,0,3,3.21A3.35,3.35,0,0,0,188,85l.81.75a4.28,4.28,0,0,1-7.61-2.71Z" style="fill:#3e3e3d"/><path d="M190.05,83.07a4.31,4.31,0,1,1,4.28,4.31A4.28,4.28,0,0,1,190.05,83.07Zm7.35,0a3.12,3.12,0,0,0-3.07-3.23,3.06,3.06,0,0,0-3,3.23,3.1,3.1,0,0,0,3.06,3.21A3.05,3.05,0,0,0,197.4,83.07Z" style="fill:#3e3e3d"/><path d="M200.89,78.93h1.23v1.39a3,3,0,0,1,2.67-1.57,2.81,2.81,0,0,1,2.65,1.65,3.3,3.3,0,0,1,2.91-1.65c1.9,0,3.07,1.28,3.07,3.33v5.11h-1.23V82.36c0-1.59-.8-2.49-2.14-2.49a2.32,2.32,0,0,0-2.29,2.56v4.76h-1.21V82.33c0-1.55-.82-2.46-2.13-2.46a2.4,2.4,0,0,0-2.3,2.61v4.71h-1.23Z" style="fill:#3e3e3d"/><path d="M116.38,56.33h14.47v3.75H120.58V64h9v3.76h-9v4H131v3.75H116.38Z" style="fill:#3e3e3d"/><path d="M134.74,56.33h3.89l9,11.81V56.33h4.17V75.51H148.2l-9.29-12.19V75.51h-4.17Z" style="fill:#3e3e3d"/><path d="M156.39,56.33h7.48c6,0,10.2,4.14,10.2,9.59s-4.17,9.59-10.2,9.59h-7.48Zm7.48,15.37a5.78,5.78,0,0,0,0-11.56h-3.26V71.7Z" style="fill:#3e3e3d"/><path d="M177.82,56.33h14.47v3.75H182V64h9v3.76h-9v4h10.41v3.75h-14.6Z" style="fill:#3e3e3d"/><path d="M196.18,56.33h8.76a7.68,7.68,0,0,1,5.6,1.94,6.11,6.11,0,0,1,1.64,4.44,6,6,0,0,1-4.11,5.95l4.69,6.85h-4.94l-4.16-6.14H200.4v6.14h-4.22Zm8.49,9.31c2.06,0,3.23-1.09,3.23-2.76s-1.26-2.74-3.31-2.74H200.4v5.5Z" style="fill:#3e3e3d"/><path d="M237.37,80.73s0,.08,0,.11c.15.35.33.68.46,1s.36,1,.52,1.53a6.52,6.52,0,0,1,.3,1.7,4.69,4.69,0,0,1-.12,1.35,4.89,4.89,0,0,1-1.09,2.12,6.24,6.24,0,0,1-1.28,1.18q-.63.44-1.29.84c-.39.23-.79.44-1.2.64s-.69.31-1.05.45a9.56,9.56,0,0,1-2.3.63,7.34,7.34,0,0,1-2.24-.11,18.6,18.6,0,0,1-2.44-.75c-.59-.19-1.18-.4-1.76-.61L218.44,89a2.6,2.6,0,0,1-1-.52,3,3,0,0,1-.46-.54,2.72,2.72,0,0,1-.36-1.87,2.29,2.29,0,0,1,.94-1.62,2.6,2.6,0,0,1,1.75-.57,2.45,2.45,0,0,1,.54.1c.62.2,1.25.42,1.87.64l.2.06-.09-.18q-2.06-4.23-4.12-8.45a2.34,2.34,0,0,1-.12-1.78,2.46,2.46,0,0,1,.9-1.26,2.4,2.4,0,0,1,3.44.62,2.54,2.54,0,0,1,.16.28l1,2.12.07.16a2.42,2.42,0,0,1,1.79-1,2.39,2.39,0,0,1,1.91.73,2.48,2.48,0,0,1,1.8-1.13,2.35,2.35,0,0,1,2,.72,2.27,2.27,0,0,1,.75-.76,2.47,2.47,0,0,1,1.12-.39,2.37,2.37,0,0,1,2.09,1c.06.07.1.16.16.24l.07.06Z" style="fill:#3e3e3d"/><path d="M224.46,86.92l-.16,0L220,85.39a2.69,2.69,0,0,0-.61-.14,1.33,1.33,0,0,0-1.35,1,1.3,1.3,0,0,0,.09.87,1.17,1.17,0,0,0,.69.58l3.92,1.33,4.62,1.58c.24.09.48.15.72.22a5.35,5.35,0,0,0,2,.12,7.1,7.1,0,0,0,1.65-.4c.4-.16.82-.3,1.22-.48s.68-.35,1-.53l.65-.37a8.43,8.43,0,0,0,1.28-.94,4.24,4.24,0,0,0,1.38-2.2,3.88,3.88,0,0,0,.05-1.48,7.78,7.78,0,0,0-.51-1.75c-.15-.38-.31-.77-.49-1.14l-2.55-5.23a1.67,1.67,0,0,0-.18-.28,1.09,1.09,0,0,0-1.58-.13,1.11,1.11,0,0,0-.28,1.41c.38.81.79,1.62,1.18,2.43a.56.56,0,0,1,0,.49.66.66,0,0,1-.58.43.7.7,0,0,1-.62-.38c-.56-1.16-1.13-2.32-1.7-3.48a1.38,1.38,0,0,0-.19-.28,1.18,1.18,0,0,0-1.36-.25,1.09,1.09,0,0,0-.52,1.48c.43.86.85,1.72,1.26,2.59a1.68,1.68,0,0,1,.16.39.62.62,0,0,1-.39.76.64.64,0,0,1-.84-.35c-.64-1.32-1.28-2.64-1.93-4a1,1,0,0,0-1.09-.64,1.12,1.12,0,0,0-.88.5,1.16,1.16,0,0,0,0,1.19c.48,1,1,2,1.47,3a.65.65,0,0,1-1.17.57q-1.33-2.78-2.69-5.54l-.9-1.79a1.09,1.09,0,0,0-1.61-.37,1.17,1.17,0,0,0-.37,1.45l5.37,11Z" style="fill:#fff"/></svg>