<svg xmlns="http://www.w3.org/2000/svg" width="327" height="329" viewBox="0 0 327 329"><defs><clipPath id="8y77a"><path fill="#fff" d="M150.602 147.305l-85 26.689-65.6-60.31 19.4-87 85-26.688 65.6 60.31z"/></clipPath><clipPath id="8y77b"><path fill="#fff" d="M307.602 183.305l-85 26.688-65.6-60.31 19.4-86.999 85-26.688 65.6 60.31z"/></clipPath><clipPath id="8y77c"><path fill="#fff" d="M197.602 302.305l-85 26.688-65.6-60.31 19.4-86.999 85-26.688 65.6 60.31z"/></clipPath></defs><g><g><path fill="#fbb040" d="M150.602 147.305l-85 26.689-65.6-60.31 19.4-87 85-26.688 65.6 60.31z"/><path fill="none" stroke="#fbb040" stroke-miterlimit="50" stroke-width="30" d="M150.602 147.305v0l-85 26.689v0l-65.6-60.31v0l19.4-87v0l85-26.688v0l65.6 60.31v0z" clip-path="url(&quot;#8y77a&quot;)"/></g><g><path fill="#fbb040" d="M307.602 183.305l-85 26.688-65.6-60.31 19.4-86.999 85-26.688 65.6 60.31z"/><path fill="none" stroke="#fbb040" stroke-miterlimit="50" stroke-width="30" d="M307.602 183.305v0l-85 26.688v0l-65.6-60.31v0l19.4-86.999v0l85-26.688v0l65.6 60.31v0z" clip-path="url(&quot;#8y77b&quot;)"/></g><g><path fill="#fbb040" d="M197.602 302.305l-85 26.688-65.6-60.31 19.4-86.999 85-26.688 65.6 60.31z"/><path fill="none" stroke="#fbb040" stroke-miterlimit="50" stroke-width="30" d="M197.602 302.305v0l-85 26.688v0l-65.6-60.31v0l19.4-86.999v0l85-26.688v0l65.6 60.31v0z" clip-path="url(&quot;#8y77c&quot;)"/></g></g></svg>